<svg xmlns="http://www.w3.org/2000/svg" width="192" height="192" fill="none" viewBox="0 0 192 192"><mask id="a" width="168" height="140" x="12" y="26" maskUnits="userSpaceOnUse" style="mask-type:alpha"><path fill="#579fff" d="M12 64.48c0-11.627 0-17.44 1.826-22.051a26 26 0 0 1 14.603-14.603C33.04 26 38.853 26 50.48 26h91.04c11.627 0 17.44 0 22.051 1.826a26 26 0 0 1 14.603 14.603C180 47.04 180 52.853 180 64.48v63.04c0 11.627 0 17.44-1.826 22.051a26 26 0 0 1-14.603 14.603C158.96 166 153.147 166 141.52 166H50.48c-11.626 0-17.44 0-22.051-1.826a26 26 0 0 1-14.603-14.603C12 144.96 12 139.147 12 127.52z"/></mask><g mask="url(#a)"><path fill="#4fa0ff" d="M12 26h168v140H12z"/><rect width="30" height="26" x="132" y="122" fill="#fff" rx="13"/><path fill="#9dd2ff" d="M62 70H12v71c0 13.807 11.193 25 25 25s25-11.193 25-25z"/><path fill="#3186ff" d="M12 26h168v44H12z"/></g><mask id="c" width="166" height="44" x="12" y="26" maskUnits="userSpaceOnUse" style="mask-type:alpha"><path fill="#3983ff" d="M12 64.48c0-11.627 0-17.44 1.826-22.051a26 26 0 0 1 14.603-14.603C33.04 26 38.853 26 50.48 26h89.04c11.627 0 17.44 0 22.051 1.826a26 26 0 0 1 14.603 14.603C178 47.04 178 52.853 178 64.48V70H12z"/></mask><g filter="url(#b)" mask="url(#c)"><path fill="url(#e)" d="M4 26h58v140H4z"/></g><defs><linearGradient id="e" x1="40.03" x2="67.89" y1="70.55" y2="30.56" gradientUnits="userSpaceOnUse"><stop stop-color="#a9a8ff"/><stop offset="1" stop-color="#336ef3"/></linearGradient><filter id="b" width="83.6" height="165.6" x="-8.8" y="13.2" color-interpolation-filters="sRGB" filterUnits="userSpaceOnUse"><feFlood flood-opacity="0" result="BackgroundImageFix"/><feBlend in="SourceGraphic" in2="BackgroundImageFix" result="shape"/><feGaussianBlur result="effect1_foregroundBlur_37335_7832" stdDeviation="6.4"/></filter></defs></svg>