<?xml version="1.0" encoding="UTF-8"?>
<svg
	width="262px"
	height="262px"
	viewBox="0 0 262 262"
	version="1.1"
	xmlns="http://www.w3.org/2000/svg"
	xmlns:xlink="http://www.w3.org/1999/xlink"
>
	<title>localhost</title>
	<g id="Page-1" stroke="none" stroke-width="1" fill="none" fill-rule="evenodd">
		<g id="localhost">
			<rect id="Rectangle" fill="#D8D8D8" x="0" y="0" width="262" height="262" rx="52"></rect>
			<g id="home" transform="translate(36.000000, 36.000000)" fill="#333333" fill-rule="nonzero">
				<path
					d="M183.46875,83.125 L166.25,65.918125 L166.25,23.75 C166.25,17.21875 160.90625,11.875 154.375,11.875 L142.5,11.875 C135.96875,11.875 130.625,17.21875 130.625,23.75 L130.625,30.316875 L106.875,6.590625 C103.633125,3.526875 100.664375,0 95,0 C89.335625,0 86.366875,3.526875 83.125,6.590625 L6.53125,83.125 C2.82625,86.984375 0,89.79875 0,95 C0,101.685625 5.13,106.875 11.875,106.875 L23.75,106.875 L23.75,178.125 C23.75,184.65625 29.09375,190 35.625,190 L71.25,190 L71.25,130.625 C71.25,124.09375 76.59375,118.75 83.125,118.75 L106.875,118.75 C113.40625,118.75 118.75,124.09375 118.75,130.625 L118.75,190 L154.375,190 C160.90625,190 166.25,184.65625 166.25,178.125 L166.25,106.875 L178.125,106.875 C184.87,106.875 190,101.685625 190,95 C190,89.79875 187.17375,86.984375 183.46875,83.125 Z"
					id="Path"
				></path>
			</g>
		</g>
	</g>
</svg>
