<svg height="262" viewBox="0 0 262 262" width="262" xmlns="http://www.w3.org/2000/svg">
	<g fill="none" fill-rule="evenodd"><rect fill="#d8d8d8" height="262" rx="52" width="262" /><g
			transform="translate(33.722321 36.240181)"
		><path
				d="m118.644411.62597452c8.0596 1.86070536 14.242343 7.54470023 17.074744 14.69391528 7.376692-2.1697227 15.66257-.7971567 22.091034 4.4085112 6.139598 4.9717481 9.211494 12.3276426 8.96246 19.6583679 7.19858 1.4058734 13.674676 6.053698 17.137802 13.154158 3.62604 7.4344849 3.099661 15.8164567-.673862 22.5168009 6.328766 4.3676905 10.476311 11.6706258 10.476311 19.9422722 0 8.271646-4.147545 15.574582-10.476434 19.942603 3.773646 6.700013 4.300025 15.081985.673985 22.51647-3.463126 7.10046-9.939222 11.748285-17.137863 13.154817.249095 7.330066-2.822801 14.685961-8.962399 19.657709-6.428464 5.205668-14.714342 6.578234-22.091994 4.408378-2.831441 7.149348-9.014184 12.833343-17.073784 14.694048-8.059521 1.860687-16.108153-.537651-21.7878977-5.721573-5.6798716 5.183922-13.7285037 7.58226-21.7880238 5.721573-8.0596004-1.860705-14.2423435-7.5447-17.0747442-14.693915-7.3766918 2.169723-15.6625698.797157-22.0910343-4.408511-6.1395976-4.971748-9.2114942-12.327643-8.9624604-19.658368-7.1985792-1.405873-13.6746755-6.053698-17.1378012-13.154158-3.62604056-7.434485-3.09966116-15.816457.6738614-22.516801-6.32876534-4.36769-10.4763108-11.670626-10.4763108-19.942272 0-8.2716464 4.14754546-15.5745817 10.4764339-19.9426034-3.77364566-6.700013-4.30002506-15.0819848-.6739845-22.5164697 3.4631257-7.10046 9.939222-11.7482846 17.1378625-13.1548167-.2490951-7.3300666 2.8228015-14.6859611 8.9623991-19.6577092 6.4284645-5.2056679 14.7143425-6.5782339 22.0919939-4.4083784 2.8314411-7.14934785 9.0141842-12.83334272 17.0737846-14.69404808 8.0595201-1.86068684 16.1081522.53765145 21.7878973 5.72157361 5.6798712-5.18392216 13.7285032-7.58226045 21.7880242-5.72157361z"
				fill="#333"
			/><path
				d="m70.1761786 73.3349015h10.7228677c.761387-9.0916372 6.6621367-14.622913 15.8622303-14.622913 8.8828494 0 14.9739454 5.4676979 14.9739454 13.4785111 0 6.6756777-2.664855 10.6810843-9.961481 15.2586919-8.565604 5.2769642-12.4359882 10.9353958-12.3090903 19.3912545v5.785587h11.0401123v-4.132562c0-6.739256 2.34761-10.2360395 10.088379-15.0043807 8.629053-5.2769642 12.943579-12.5884207 12.943579-21.8707916 0-13.4785111-10.976663-23.0787714-26.3313019-23.0787714-15.8622304 0-26.2678535 9.4731045-27.0292405 24.7953742zm25.2526707 69.0455805c4.8221177 0 8.6925027-4.005407 8.6925027-9.028059 0-5.022653-3.870385-9.02806-8.6925027-9.02806-4.822118 0-8.6925022 4.005407-8.6925022 9.02806 0 5.022652 3.8703842 9.028059 8.6925022 9.028059z"
				fill="#fff"
				fill-rule="nonzero"
			/></g></g>
</svg>
