<svg height="67" viewBox="0 0 49 67" width="49" xmlns="http://www.w3.org/2000/svg" xmlns:xlink="http://www.w3.org/1999/xlink"><linearGradient id="a" x1="50.005395%" x2="50.005395%" y1="8.586106%" y2="100.013939%"><stop offset="0" stop-color="#263238" stop-opacity=".2"/><stop offset="1" stop-color="#263238" stop-opacity=".02"/></linearGradient><radialGradient id="b" cx="3.168047%" cy="2.717443%" gradientTransform="matrix(1 0 0 .727273 0 .007411)" r="161.248516%"><stop offset="0" stop-color="#fff" stop-opacity=".1"/><stop offset="1" stop-color="#fff" stop-opacity="0"/></radialGradient><mask id="c" fill="#fff"><path d="m29.5833333 0h-25.1458333c-2.440625 0-4.4375 1.996875-4.4375 4.4375v56.2083333c0 2.440625 1.996875 4.4375 4.4375 4.4375h38.4583333c2.440625 0 4.4375-1.996875 4.4375-4.4375v-42.8958333z" fill="#fff" fill-rule="evenodd"/></mask><mask id="d" fill="#fff"><path d="m29.5833333 0h-25.1458333c-2.440625 0-4.4375 1.996875-4.4375 4.4375v56.2083333c0 2.440625 1.996875 4.4375 4.4375 4.4375h38.4583333c2.440625 0 4.4375-1.996875 4.4375-4.4375v-42.8958333z" fill="#fff" fill-rule="evenodd"/></mask><mask id="e" fill="#fff"><path d="m29.5833333 0h-25.1458333c-2.440625 0-4.4375 1.996875-4.4375 4.4375v56.2083333c0 2.440625 1.996875 4.4375 4.4375 4.4375h38.4583333c2.440625 0 4.4375-1.996875 4.4375-4.4375v-42.8958333z" fill="#fff" fill-rule="evenodd"/></mask><mask id="f" fill="#fff"><path d="m29.5833333 0h-25.1458333c-2.440625 0-4.4375 1.996875-4.4375 4.4375v56.2083333c0 2.440625 1.996875 4.4375 4.4375 4.4375h38.4583333c2.440625 0 4.4375-1.996875 4.4375-4.4375v-42.8958333z" fill="#fff" fill-rule="evenodd"/></mask><mask id="g" fill="#fff"><path d="m29.5833333 0h-25.1458333c-2.440625 0-4.4375 1.996875-4.4375 4.4375v56.2083333c0 2.440625 1.996875 4.4375 4.4375 4.4375h38.4583333c2.440625 0 4.4375-1.996875 4.4375-4.4375v-42.8958333z" fill="#fff" fill-rule="evenodd"/></mask><mask id="h" fill="#fff"><path d="m29.5833333 0h-25.1458333c-2.440625 0-4.4375 1.996875-4.4375 4.4375v56.2083333c0 2.440625 1.996875 4.4375 4.4375 4.4375h38.4583333c2.440625 0 4.4375-1.996875 4.4375-4.4375v-42.8958333z" fill="#fff" fill-rule="evenodd"/></mask><mask id="i" fill="#fff"><path d="m29.5833333 0h-25.1458333c-2.440625 0-4.4375 1.996875-4.4375 4.4375v56.2083333c0 2.440625 1.996875 4.4375 4.4375 4.4375h38.4583333c2.440625 0 4.4375-1.996875 4.4375-4.4375v-42.8958333z" fill="#fff" fill-rule="evenodd"/></mask><g fill="none" fill-rule="evenodd" transform="translate(.833333 .958333)"><path d="m29.5833333 0h-25.1458333c-2.440625 0-4.4375 1.996875-4.4375 4.4375v56.2083333c0 2.440625 1.996875 4.4375 4.4375 4.4375h38.4583333c2.440625 0 4.4375-1.996875 4.4375-4.4375v-42.8958333l-10.3541666-7.3958333z" fill="#0f9d58" fill-rule="nonzero" mask="url(#c)"/><path d="m11.8333333 31.8020833v21.4479167h23.6666667v-21.4479167zm10.3541667 18.4895834h-7.3958333v-3.6979167h7.3958333zm0-5.9166667h-7.3958333v-3.6979167h7.3958333zm0-5.9166667h-7.3958333v-3.6979166h7.3958333zm10.3541667 11.8333334h-7.3958334v-3.6979167h7.3958334zm0-5.9166667h-7.3958334v-3.6979167h7.3958334zm0-5.9166667h-7.3958334v-3.6979166h7.3958334z" fill="#f1f1f1" fill-rule="nonzero" mask="url(#d)"/><path d="m30.8813021 16.4520313 16.4520312 16.4483333v-15.1503646z" fill="url(#a)" fill-rule="nonzero" mask="url(#e)"/><g mask="url(#f)"><path d="m2.95833333 2.95833333v13.31249997c0 2.4517188 1.98578125 4.4375 4.4375 4.4375h13.31249997z" fill="#87ceac" fill-rule="nonzero" transform="translate(26.625 -2.958333)"/></g><g fill-rule="nonzero"><path d="m4.4375 0c-2.440625 0-4.4375 1.996875-4.4375 4.4375v.36979167c0-2.440625 1.996875-4.4375 4.4375-4.4375h25.1458333v-.36979167z" fill="#fff" fill-opacity=".2" mask="url(#g)"/><path d="m42.8958333 64.7135417h-38.4583333c-2.440625 0-4.4375-1.996875-4.4375-4.4375v.3697916c0 2.440625 1.996875 4.4375 4.4375 4.4375h38.4583333c2.440625 0 4.4375-1.996875 4.4375-4.4375v-.3697916c0 2.440625-1.996875 4.4375-4.4375 4.4375z" fill="#263238" fill-opacity=".2" mask="url(#h)"/><path d="m34.0208333 17.75c-2.4517187 0-4.4375-1.9857812-4.4375-4.4375v.3697917c0 2.4517187 1.9857813 4.4375 4.4375 4.4375h13.3125v-.3697917z" fill="#263238" fill-opacity=".1" mask="url(#i)"/><path d="m29.5833333 0h-25.1458333c-2.440625 0-4.4375 1.996875-4.4375 4.4375v56.2083333c0 2.440625 1.996875 4.4375 4.4375 4.4375h38.4583333c2.440625 0 4.4375-1.996875 4.4375-4.4375v-42.8958333z" fill="url(#b)"/></g></g></svg>